<?xml version="1.0" encoding="utf-8"?>
<!-- Generator: Adobe Illustrator 22.0.1, SVG Export Plug-In . SVG Version: 6.00 Build 0)  -->
<svg version="1.1" id="Layer_1" xmlns="http://www.w3.org/2000/svg" xmlns:xlink="http://www.w3.org/1999/xlink" x="0px" y="0px"
	 viewBox="0 0 32 32" style="enable-background:new 0 0 32 32;" xml:space="preserve">
<style type="text/css">
	.st0{fill:none;stroke:#05A6D3;stroke-width:3;stroke-linecap:round;stroke-linejoin:round;}
	.st1{fill:#0EA6D3;}
</style>
<g>
	<path class="st0" d="M16,1.4c-4.8,0-8.7,3.9-8.7,8.7c0,2.1,0.4,3.4,1.6,4.9l7.1,8.2l7.1-8.2c1.2-1.5,1.6-2.8,1.6-4.9
		C24.7,5.4,20.8,1.4,16,1.4z"/>
	<path class="st0" d="M5.8,20.6c-2.7,1.1-4.4,2.5-4.4,4.2c0,3.2,6.5,5.8,14.6,5.8c8,0,14.6-2.6,14.6-5.8c0-1.6-1.7-3.1-4.4-4.2"/>
	<path class="st1" d="M16,8.3c0.2,0,0.4,0,0.7,0.1c0.2,0.1,0.4,0.2,0.6,0.4c0.2,0.2,0.3,0.3,0.4,0.6s0.1,0.4,0.1,0.7
		c0,0.2,0,0.4-0.1,0.7c-0.1,0.2-0.2,0.4-0.4,0.6c-0.2,0.2-0.3,0.3-0.6,0.4c-0.2,0.1-0.4,0.1-0.7,0.1s-0.4,0-0.7-0.1
		c-0.2-0.1-0.4-0.2-0.6-0.4c-0.2-0.2-0.3-0.3-0.4-0.6c-0.1-0.2-0.1-0.4-0.1-0.7c0-0.2,0-0.4,0.1-0.7c0.1-0.2,0.2-0.4,0.4-0.6
		c0.2-0.2,0.3-0.3,0.6-0.4C15.6,8.4,15.8,8.3,16,8.3z"/>
	<path class="st0" d="M16,8.3c0.2,0,0.4,0,0.7,0.1c0.2,0.1,0.4,0.2,0.6,0.4c0.2,0.2,0.3,0.3,0.4,0.6s0.1,0.4,0.1,0.7
		c0,0.2,0,0.4-0.1,0.7c-0.1,0.2-0.2,0.4-0.4,0.6c-0.2,0.2-0.3,0.3-0.6,0.4c-0.2,0.1-0.4,0.1-0.7,0.1s-0.4,0-0.7-0.1
		c-0.2-0.1-0.4-0.2-0.6-0.4c-0.2-0.2-0.3-0.3-0.4-0.6c-0.1-0.2-0.1-0.4-0.1-0.7c0-0.2,0-0.4,0.1-0.7c0.1-0.2,0.2-0.4,0.4-0.6
		c0.2-0.2,0.3-0.3,0.6-0.4C15.6,8.4,15.8,8.3,16,8.3z"/>
</g>
</svg>
