<?xml version="1.0" encoding="utf-8"?>
<!-- Generator: Adobe Illustrator 22.0.1, SVG Export Plug-In . SVG Version: 6.00 Build 0)  -->
<svg version="1.1" id="Layer_1" xmlns="http://www.w3.org/2000/svg" xmlns:xlink="http://www.w3.org/1999/xlink" x="0px" y="0px"
	 viewBox="0 0 32 24.5" style="enable-background:new 0 0 32 24.5;" xml:space="preserve">
<style type="text/css">
	.st0{fill:#A0A4A7;}
</style>
<g id="Group_7311" transform="translate(-1.234 -3.75)">
	<path id="Path_5457" class="st0" d="M17.2,19c1.7,0,3-1.3,3-3s-1.3-3-3-3s-3,1.3-3,3S15.6,19,17.2,19z"/>
</g>
<path class="st0" d="M31.9,11.4c-1.7-5-5.6-8.9-10.6-10.6C12.5-2.1,3.1,2.7,0.1,11.4h0C0,12,0,12.6,0.1,13.1
	c1.7,5,5.6,8.9,10.6,10.6c8.8,2.9,18.2-1.8,21.2-10.6C32,12.5,32,12,31.9,11.4z M16,20.1c-4.3,0-7.8-3.5-7.8-7.8s3.5-7.8,7.8-7.8
	c4.3,0,7.8,3.5,7.8,7.8S20.3,20.1,16,20.1z"/>
</svg>
