<svg xmlns="http://www.w3.org/2000/svg" width="30" height="30" viewBox="0 0 30 30">
  <path id="Path_2599" data-name="Path 2599" d="M16,1A15,15,0,1,0,31,16,15,15,0,0,0,16,1ZM14.489,11.82a3.184,3.184,0,0,1,.738-1.064A1.126,1.126,0,0,1,16,10.545a1.314,1.314,0,0,1,1.364,1.334,1.069,1.069,0,0,1-.275.807,9.09,9.09,0,0,1-1.838,1.426l-.614.4v2.847a1.364,1.364,0,1,0,2.727,0V15.977a9.119,9.119,0,0,0,1.81-1.533,3.77,3.77,0,0,0,.918-2.565A4.04,4.04,0,0,0,16,7.818a3.83,3.83,0,0,0-2.465.8,5.72,5.72,0,0,0-1.478,1.97,1.363,1.363,0,1,0,2.433,1.232Zm2.875,10.316a1.364,1.364,0,1,0-2.727,0v.682a1.364,1.364,0,0,0,2.727,0Z" transform="translate(-1 -1)" fill="#a0a4a7" fill-rule="evenodd"/>
</svg>
