<?xml version="1.0" encoding="utf-8"?>
<!-- Generator: Adobe Illustrator 22.0.1, SVG Export Plug-In . SVG Version: 6.00 Build 0)  -->
<svg version="1.1" id="Layer_1" xmlns="http://www.w3.org/2000/svg" xmlns:xlink="http://www.w3.org/1999/xlink" x="0px" y="0px"
	 viewBox="0 0 1080 455" style="enable-background:new 0 0 1080 455;" xml:space="preserve">
<style type="text/css">
	.st0{fill:#DBDBDB;}
	.st1{fill:#808080;}
	.st2{fill:#FFFFFF;}
	.st3{fill:#ACACAC;}
	.st4{fill:#2C2D2F;}
	.st5{font-family:'CircularProTT-Book';}
	.st6{font-size:42px;}
	.st7{fill:#212121;}
	.st8{font-size:22px;}
	.st9{fill:url(#Rectangle_1664-3_1_);}
	.st10{fill:none;stroke:#2C2D2F;stroke-width:3;stroke-linecap:round;stroke-linejoin:round;}
</style>
<g id="Group_4819" transform="translate(0 -2037.938)">
	<g id="Group_4125" transform="translate(0 2038)">
		<rect id="Rectangle_1654" y="-0.1" class="st0" width="1080" height="455"/>
		<g id="Group_4118" transform="translate(11 14.385)">
			<g id="Group_4117">
				<path id="Rectangle_1680" class="st1" d="M9,95.1h69c5,0,9,4,9,9v52c0,5-4,9-9,9H9c-5,0-9-4-9-9v-52C0,99.1,4,95.1,9,95.1z"/>
				<path id="Rectangle_1690" class="st1" d="M63,180.1h69c5,0,9,4,9,9v51c0,5-4,9-9,9H63c-5,0-9-4-9-9v-51
					C54,184.1,58,180.1,63,180.1z"/>
				<path id="Rectangle_1709" class="st1" d="M9,349.1h69c5,0,9,4,9,9v52c0,5-4,9-9,9H9c-5,0-9-4-9-9v-52C0,353.1,4,349.1,9,349.1z"
					/>
				<path id="Rectangle_1710" class="st1" d="M118,349.1h608c5,0,9,4,9,9v52c0,5-4,9-9,9H118c-5,0-9-4-9-9v-52
					C109,353.1,113,349.1,118,349.1z"/>
				<path id="Rectangle_1679" class="st1" d="M979,10.1h69c5,0,9,4,9,9v52c0,5-4,9-9,9h-69c-5,0-9-4-9-9v-52
					C970,14.1,974,10.1,979,10.1z"/>
				<path id="Rectangle_1700" class="st1" d="M118,265.1h69c5,0,9,4,9,9v51c0,5-4,9-9,9h-69c-5,0-9-4-9-9v-51
					C109,269.1,113,265.1,118,265.1z"/>
				<path id="Rectangle_1699" class="st1" d="M9,265.1h69c5,0,9,4,9,9v51c0,5-4,9-9,9H9c-5,0-9-4-9-9v-51C0,269.1,4,265.1,9,265.1z"
					/>
				<path id="Rectangle_1670" class="st1" d="M10,10.1h69c5,0,9,4,9,9v52c0,5-4,9-9,9H10c-5,0-9-4-9-9v-52C1,14.1,5,10.1,10,10.1z"
					/>
				<path id="Rectangle_1681" class="st1" d="M118,95.1h69c5,0,9,4,9,9v52c0,5-4,9-9,9h-69c-5,0-9-4-9-9v-52
					C109,99.1,113,95.1,118,95.1z"/>
				<path id="Rectangle_1691" class="st1" d="M172,180.1h69c5,0,9,4,9,9v51c0,5-4,9-9,9h-69c-5,0-9-4-9-9v-51
					C163,184.1,167,180.1,172,180.1z"/>
				<path id="Rectangle_1701" class="st1" d="M227,265.1h69c5,0,9,4,9,9v51c0,5-4,9-9,9h-69c-5,0-9-4-9-9v-51
					C218,269.1,222,265.1,227,265.1z"/>
				<path id="Rectangle_1671" class="st1" d="M117,10.1h69c5,0,9,4,9,9v52c0,5-4,9-9,9h-69c-5,0-9-4-9-9v-52
					C108,14.1,112,10.1,117,10.1z"/>
				<path id="Rectangle_1682" class="st1" d="M225,95.1h69c5,0,9,4,9,9v52c0,5-4,9-9,9h-69c-5,0-9-4-9-9v-52
					C216,99.1,220,95.1,225,95.1z"/>
				<path id="Rectangle_1692" class="st1" d="M279,180.1h69c5,0,9,4,9,9v51c0,5-4,9-9,9h-69c-5,0-9-4-9-9v-51
					C270,184.1,274,180.1,279,180.1z"/>
				<path id="Rectangle_1702" class="st1" d="M334,265.1h69c5,0,9,4,9,9v51c0,5-4,9-9,9h-69c-5,0-9-4-9-9v-51
					C325,269.1,329,265.1,334,265.1z"/>
				<path id="Rectangle_1672" class="st1" d="M224,10.1h69c5,0,9,4,9,9v52c0,5-4,9-9,9h-69c-5,0-9-4-9-9v-52
					C215,14.1,219,10.1,224,10.1z"/>
				<path id="Rectangle_1683" class="st1" d="M332,95.1h69c5,0,9,4,9,9v52c0,5-4,9-9,9h-69c-5,0-9-4-9-9v-52
					C323,99.1,327,95.1,332,95.1z"/>
				<path id="Rectangle_1693" class="st1" d="M386,180.1h69c5,0,9,4,9,9v51c0,5-4,9-9,9h-69c-5,0-9-4-9-9v-51
					C377,184.1,381,180.1,386,180.1z"/>
				<path id="Rectangle_1703" class="st1" d="M441,265.1h69c5,0,9,4,9,9v51c0,5-4,9-9,9h-69c-5,0-9-4-9-9v-51
					C432,269.1,436,265.1,441,265.1z"/>
				<path id="Rectangle_1673" class="st1" d="M332,10.1h69c5,0,9,4,9,9v52c0,5-4,9-9,9h-69c-5,0-9-4-9-9v-52
					C323,14.1,327,10.1,332,10.1z"/>
				<path id="Rectangle_1684" class="st1" d="M440,95.1h69c5,0,9,4,9,9v52c0,5-4,9-9,9h-69c-5,0-9-4-9-9v-52
					C431,99.1,435,95.1,440,95.1z"/>
				<path id="Rectangle_1694" class="st1" d="M494,180.1h69c5,0,9,4,9,9v51c0,5-4,9-9,9h-69c-5,0-9-4-9-9v-51
					C485,184.1,489,180.1,494,180.1z"/>
				<path id="Rectangle_1704" class="st1" d="M549,265.1h69c5,0,9,4,9,9v51c0,5-4,9-9,9h-69c-5,0-9-4-9-9v-51
					C540,269.1,544,265.1,549,265.1z"/>
				<path id="Rectangle_1674" class="st1" d="M440,10.1h69c5,0,9,4,9,9v52c0,5-4,9-9,9h-69c-5,0-9-4-9-9v-52
					C431,14.1,435,10.1,440,10.1z"/>
				<path id="Rectangle_1685" class="st1" d="M548,95.1h69c5,0,9,4,9,9v52c0,5-4,9-9,9h-69c-5,0-9-4-9-9v-52
					C539,99.1,543,95.1,548,95.1z"/>
				<path id="Rectangle_1695" class="st1" d="M602,180.1h69c5,0,9,4,9,9v51c0,5-4,9-9,9h-69c-5,0-9-4-9-9v-51
					C593,184.1,597,180.1,602,180.1z"/>
				<path id="Rectangle_1705" class="st1" d="M657,265.1h69c5,0,9,4,9,9v51c0,5-4,9-9,9h-69c-5,0-9-4-9-9v-51
					C648,269.1,652,265.1,657,265.1z"/>
				<path id="Rectangle_1675" class="st1" d="M548,10.1h69c5,0,9,4,9,9v52c0,5-4,9-9,9h-69c-5,0-9-4-9-9v-52
					C539,14.1,543,10.1,548,10.1z"/>
				<path id="Rectangle_1686" class="st1" d="M656,95.1h69c5,0,9,4,9,9v52c0,5-4,9-9,9h-69c-5,0-9-4-9-9v-52
					C647,99.1,651,95.1,656,95.1z"/>
				<path id="Rectangle_1696" class="st1" d="M710,180.1h69c5,0,9,4,9,9v51c0,5-4,9-9,9h-69c-5,0-9-4-9-9v-51
					C701,184.1,705,180.1,710,180.1z"/>
				<path id="Rectangle_1676" class="st1" d="M655,10.1h69c5,0,9,4,9,9v52c0,5-4,9-9,9h-69c-5,0-9-4-9-9v-52
					C646,14.1,650,10.1,655,10.1z"/>
				<path id="Rectangle_1687" class="st1" d="M763,95.1h69c5,0,9,4,9,9v52c0,5-4,9-9,9h-69c-5,0-9-4-9-9v-52
					C754,99.1,758,95.1,763,95.1z"/>
				<path id="Rectangle_1697" class="st1" d="M817,180.1h69c5,0,9,4,9,9v51c0,5-4,9-9,9h-69c-5,0-9-4-9-9v-51
					C808,184.1,812,180.1,817,180.1z"/>
				<path id="Rectangle_1677" class="st1" d="M762,10.1h69c5,0,9,4,9,9v52c0,5-4,9-9,9h-69c-5,0-9-4-9-9v-52
					C753,14.1,757,10.1,762,10.1z"/>
				<path id="Rectangle_1688" class="st1" d="M870,95.1h69c5,0,9,4,9,9v52c0,5-4,9-9,9h-69c-5,0-9-4-9-9v-52
					C861,99.1,865,95.1,870,95.1z"/>
				<path id="Rectangle_1698" class="st1" d="M924,180.1h69c5,0,9,4,9,9v51c0,5-4,9-9,9h-69c-5,0-9-4-9-9v-51
					C915,184.1,919,180.1,924,180.1z"/>
				<path id="Rectangle_1678" class="st1" d="M871,10.1h69c5,0,9,4,9,9v52c0,5-4,9-9,9h-69c-5,0-9-4-9-9v-52
					C862,14.1,866,10.1,871,10.1z"/>
				<path id="Rectangle_1689" class="st1" d="M979,95.1h69c5,0,9,4,9,9v52c0,5-4,9-9,9h-69c-5,0-9-4-9-9v-52
					C970,99.1,974,95.1,979,95.1z"/>
				<path id="Rectangle_1711" class="st1" d="M979,349.1h69c5,0,9,4,9,9v52c0,5-4,9-9,9h-69c-5,0-9-4-9-9v-52
					C970,353.1,974,349.1,979,349.1z"/>
			</g>
		</g>
		<path id="Rectangle_1665" class="st2" d="M20,107.4h69c5,0,9,4,9,9v51c0,5-4,9-9,9H20c-5,0-9-4-9-9v-51
			C11,111.5,15,107.4,20,107.4z"/>
		<path id="Rectangle_1666" class="st2" d="M74,191.4h69c5,0,9,4,9,9v52c0,5-4,9-9,9H74c-5,0-9-4-9-9v-52
			C65,195.5,69,191.4,74,191.4z"/>
		<path id="Rectangle_1668" class="st3" d="M20,361.4h69c5,0,9,4,9,9v51c0,5-4,9-9,9H20c-5,0-9-4-9-9v-51
			C11,365.5,15,361.4,20,361.4z"/>
		<path id="Rectangle_1669" class="st2" d="M129,361.4h608c5,0,9,4,9,9v51c0,5-4,9-9,9H129c-5,0-9-4-9-9v-51
			C120,365.5,124,361.4,129,361.4z"/>
		<path id="Rectangle_1655" class="st3" d="M990,22.4h69c5,0,9,4,9,9v52c0,5-4,9-9,9h-69c-5,0-9-4-9-9v-52
			C981,26.5,985,22.4,990,22.4z"/>
		<text transform="matrix(1 0 0 1 1014 73.438)" class="st4 st5 st6">0</text>
		<text transform="matrix(1 0 0 1 38 157.438)" class="st4 st5 st6">Q</text>
		<text transform="matrix(1 0 0 1 97 243.438)" class="st4 st5 st6">A</text>
		<path id="Rectangle_1667" class="st2" d="M129,276.4h69c5,0,9,4,9,9v52c0,5-4,9-9,9h-69c-5,0-9-4-9-9v-52
			C120,280.5,124,276.4,129,276.4z"/>
		<text transform="matrix(1 0 0 1 151 327.438)" class="st4 st5 st6">Z</text>
		<path id="Rectangle_1667-2" class="st7" d="M20,276.4h69c5,0,9,4,9,9v52c0,5-4,9-9,9H20c-5,0-9-4-9-9v-52
			C11,280.5,15,276.4,20,276.4z"/>
		<text transform="matrix(1 0 0 1 30 403.438)" class="st4 st5 st8">.?123</text>
		<path id="Rectangle_1656" class="st3" d="M21,22.4h69c5,0,9,4,9,9v52c0,5-4,9-9,9H21c-5,0-9-4-9-9v-52C12,26.5,16,22.4,21,22.4z"
			/>
		<text transform="matrix(1 0 0 1 51 73.438)" class="st4 st5 st6">1</text>
		<path id="Rectangle_1656-2" class="st2" d="M129,107.4h69c5,0,9,4,9,9v51c0,5-4,9-9,9h-69c-5,0-9-4-9-9v-51
			C120,111.5,124,107.4,129,107.4z"/>
		<text transform="matrix(1 0 0 1 141 157.438)" class="st4 st5 st6">W</text>
		<path id="Rectangle_1656-3" class="st2" d="M183,191.4h69c5,0,9,4,9,9v52c0,5-4,9-9,9h-69c-5,0-9-4-9-9v-52
			C174,195.5,178,191.4,183,191.4z"/>
		<text transform="matrix(1 0 0 1 207 243.438)" class="st4 st5 st6">S</text>
		<path id="Rectangle_1656-4" class="st2" d="M238,276.4h69c5,0,9,4,9,9v52c0,5-4,9-9,9h-69c-5,0-9-4-9-9v-52
			C229,280.5,233,276.4,238,276.4z"/>
		<text transform="matrix(1 0 0 1 262 327.438)" class="st4 st5 st6">X</text>
		<path id="Rectangle_1657" class="st3" d="M128,22.4h69c5,0,9,4,9,9v52c0,5-4,9-9,9h-69c-5,0-9-4-9-9v-52
			C119,26.5,123,22.4,128,22.4z"/>
		<text transform="matrix(1 0 0 1 153 73.438)" class="st4 st5 st6">2</text>
		<path id="Rectangle_1657-2" class="st2" d="M236,107.4h69c5,0,9,4,9,9v51c0,5-4,9-9,9h-69c-5,0-9-4-9-9v-51
			C227,111.5,231,107.4,236,107.4z"/>
		<text transform="matrix(1 0 0 1 260 157.438)" class="st4 st5 st6">E</text>
		<path id="Rectangle_1657-3" class="st2" d="M290,191.4h69c5,0,9,4,9,9v52c0,5-4,9-9,9h-69c-5,0-9-4-9-9v-52
			C281,195.5,285,191.4,290,191.4z"/>
		<text transform="matrix(1 0 0 1 311 243.438)" class="st4 st5 st6">D</text>
		<path id="Rectangle_1657-4" class="st2" d="M345,276.4h69c5,0,9,4,9,9v52c0,5-4,9-9,9h-69c-5,0-9-4-9-9v-52
			C336,280.5,340,276.4,345,276.4z"/>
		<text transform="matrix(1 0 0 1 365 327.438)" class="st4 st5 st6">C</text>
		<path id="Rectangle_1658" class="st3" d="M235,22.4h69c5,0,9,4,9,9v52c0,5-4,9-9,9h-69c-5,0-9-4-9-9v-52
			C226,26.5,230,22.4,235,22.4z"/>
		<text transform="matrix(1 0 0 1 260 73.438)" class="st4 st5 st6">3</text>
		<path id="Rectangle_1658-2" class="st2" d="M343,107.4h69c5,0,9,4,9,9v51c0,5-4,9-9,9h-69c-5,0-9-4-9-9v-51
			C334,111.5,338,107.4,343,107.4z"/>
		<text transform="matrix(1 0 0 1 367 157.438)" class="st4 st5 st6">R</text>
		<path id="Rectangle_1658-3" class="st2" d="M397,191.4h69c5,0,9,4,9,9v52c0,5-4,9-9,9h-69c-5,0-9-4-9-9v-52
			C388,195.5,392,191.4,397,191.4z"/>
		<text transform="matrix(1 0 0 1 423 243.438)" class="st4 st5 st6">F</text>
		<path id="Rectangle_1658-4" class="st2" d="M452,276.4h69c5,0,9,4,9,9v52c0,5-4,9-9,9h-69c-5,0-9-4-9-9v-52
			C443,280.5,447,276.4,452,276.4z"/>
		<text transform="matrix(1 0 0 1 475 327.438)" class="st4 st5 st6">V</text>
		<path id="Rectangle_1659" class="st3" d="M343,22.4h69c5,0,9,4,9,9v52c0,5-4,9-9,9h-69c-5,0-9-4-9-9v-52
			C334,26.5,338,22.4,343,22.4z"/>
		<text transform="matrix(1 0 0 1 367 73.438)" class="st4 st5 st6">4</text>
		<path id="Rectangle_1659-2" class="st2" d="M451,107.4h69c5,0,9,4,9,9v51c0,5-4,9-9,9h-69c-5,0-9-4-9-9v-51
			C442,111.5,446,107.4,451,107.4z"/>
		<text transform="matrix(1 0 0 1 474 157.438)" class="st4 st5 st6">T</text>
		<path id="Rectangle_1659-3" class="st2" d="M505,191.4h69c5,0,9,4,9,9v52c0,5-4,9-9,9h-69c-5,0-9-4-9-9v-52
			C496,195.5,500,191.4,505,191.4z"/>
		<text transform="matrix(1 0 0 1 525 243.438)" class="st4 st5 st6">G</text>
		<path id="Rectangle_1659-4" class="st2" d="M560,276.4h69c5,0,9,4,9,9v52c0,5-4,9-9,9h-69c-5,0-9-4-9-9v-52
			C551,280.5,555,276.4,560,276.4z"/>
		<text transform="matrix(1 0 0 1 584 327.438)" class="st4 st5 st6">B</text>
		<path id="Rectangle_1660" class="st3" d="M451,22.4h69c5,0,9,4,9,9v52c0,5-4,9-9,9h-69c-5,0-9-4-9-9v-52
			C442,26.5,446,22.4,451,22.4z"/>
		<text transform="matrix(1 0 0 1 476 73.438)" class="st4 st5 st6">5</text>
		<path id="Rectangle_1660-2" class="st2" d="M559,107.4h69c5,0,9,4,9,9v51c0,5-4,9-9,9h-69c-5,0-9-4-9-9v-51
			C550,111.5,554,107.4,559,107.4z"/>
		<text transform="matrix(1 0 0 1 583 157.438)" class="st4 st5 st6">Y</text>
		<path id="Rectangle_1660-3" class="st2" d="M613,191.4h69c5,0,9,4,9,9v52c0,5-4,9-9,9h-69c-5,0-9-4-9-9v-52
			C604,195.5,608,191.4,613,191.4z"/>
		<text transform="matrix(1 0 0 1 633 243.438)" class="st4 st5 st6">H</text>
		<path id="Rectangle_1660-4" class="st2" d="M668,276.4h69c5,0,9,4,9,9v52c0,5-4,9-9,9h-69c-5,0-9-4-9-9v-52
			C659,280.5,663,276.4,668,276.4z"/>
		<text transform="matrix(1 0 0 1 687 327.438)" class="st4 st5 st6">N</text>
		<path id="Rectangle_1661" class="st3" d="M559,22.4h69c5,0,9,4,9,9v52c0,5-4,9-9,9h-69c-5,0-9-4-9-9v-52
			C550,26.5,554,22.4,559,22.4z"/>
		<text transform="matrix(1 0 0 1 583 73.438)" class="st4 st5 st6">6</text>
		<path id="Rectangle_1661-2" class="st2" d="M667,107.4h69c5,0,9,4,9,9v51c0,5-4,9-9,9h-69c-5,0-9-4-9-9v-51
			C658,111.5,662,107.4,667,107.4z"/>
		<text transform="matrix(1 0 0 1 688 157.438)" class="st4 st5 st6">U</text>
		<path id="Rectangle_1661-3" class="st2" d="M721,191.4h69c5,0,9,4,9,9v52c0,5-4,9-9,9h-69c-5,0-9-4-9-9v-52
			C712,195.5,716,191.4,721,191.4z"/>
		<text transform="matrix(1 0 0 1 747 243.438)" class="st4 st5 st6">J</text>
		<g id="Group_4820" transform="translate(767 266.116)">
			<path id="Rectangle_1706" class="st1" d="M9,13.3h69c5,0,9,4,9,9v51c0,5-4,9-9,9H9c-5,0-9-4-9-9v-51C0,17.4,4,13.3,9,13.3z"/>
			<path id="Rectangle_1661-4" class="st2" d="M9,10.3h69c5,0,9,4,9,9v52c0,5-4,9-9,9H9c-5,0-9-4-9-9v-52C0,14.4,4,10.3,9,10.3z"/>
			<text transform="matrix(1 0 0 1 25 61.321)" class="st4 st5 st6">M</text>
		</g>
		<g id="Group_4821" transform="translate(767 350.027)">
			<path id="Rectangle_1706-2" class="st1" d="M9,12.4h69c5,0,9,4,9,9v52c0,5-4,9-9,9H9c-5,0-9-4-9-9v-52C0,16.4,4,12.4,9,12.4z"/>
			<path id="Rectangle_1661-5" class="st2" d="M9,10.4h69c5,0,9,4,9,9v52c0,5-4,9-9,9H9c-5,0-9-4-9-9v-52C0,14.4,4,10.4,9,10.4z"/>
			<text transform="matrix(1 0 0 1 27 61.41)" class="st4 st5 st6">@</text>
		</g>
		<g id="Group_4822" transform="translate(875 350.027)">
			<path id="Rectangle_1706-3" class="st1" d="M9,12.4h69c5,0,9,4,9,9v52c0,5-4,9-9,9H9c-5,0-9-4-9-9v-52C0,16.4,4,12.4,9,12.4z"/>
			<path id="Rectangle_1661-6" class="st2" d="M9,10.4h69c5,0,9,4,9,9v52c0,5-4,9-9,9H9c-5,0-9-4-9-9v-52C0,14.4,4,10.4,9,10.4z"/>
			<text transform="matrix(1 0 0 1 38 58.41)" class="st4 st5 st6">.</text>
		</g>
		<path id="Rectangle_1662" class="st3" d="M666,22.4h69c5,0,9,4,9,9v52c0,5-4,9-9,9h-69c-5,0-9-4-9-9v-52
			C657,26.5,661,22.4,666,22.4z"/>
		<text transform="matrix(1 0 0 1 692 73.438)" class="st4 st5 st6">7</text>
		<path id="Rectangle_1662-2" class="st2" d="M774,107.4h69c5,0,9,4,9,9v51c0,5-4,9-9,9h-69c-5,0-9-4-9-9v-51
			C765,111.5,769,107.4,774,107.4z"/>
		<text transform="matrix(1 0 0 1 807 157.438)" class="st4 st5 st6">I</text>
		<path id="Rectangle_1662-3" class="st2" d="M828,191.4h69c5,0,9,4,9,9v52c0,5-4,9-9,9h-69c-5,0-9-4-9-9v-52
			C819,195.5,823,191.4,828,191.4z"/>
		<text transform="matrix(1 0 0 1 850 243.438)" class="st4 st5 st6">K</text>
		<path id="Rectangle_1663" class="st3" d="M773,22.4h69c5,0,9,4,9,9v52c0,5-4,9-9,9h-69c-5,0-9-4-9-9v-52
			C764,26.5,768,22.4,773,22.4z"/>
		<text transform="matrix(1 0 0 1 798 73.438)" class="st4 st5 st6">8</text>
		<path id="Rectangle_1663-2" class="st2" d="M881,107.4h69c5,0,9,4,9,9v51c0,5-4,9-9,9h-69c-5,0-9-4-9-9v-51
			C872,111.5,876,107.4,881,107.4z"/>
		<text transform="matrix(1 0 0 1 900 157.438)" class="st4 st5 st6">O</text>
		<path id="Rectangle_1663-3" class="st2" d="M935,191.4h69c5,0,9,4,9,9v52c0,5-4,9-9,9h-69c-5,0-9-4-9-9v-52
			C926,195.5,930,191.4,935,191.4z"/>
		<text transform="matrix(1 0 0 1 961 243.438)" class="st4 st5 st6">L</text>
		<path id="Rectangle_1664" class="st3" d="M882,22.4h69c5,0,9,4,9,9v52c0,5-4,9-9,9h-69c-5,0-9-4-9-9v-52
			C873,26.5,877,22.4,882,22.4z"/>
		<text transform="matrix(1 0 0 1 906 73.438)" class="st4 st5 st6">9</text>
		<path id="Rectangle_1664-2" class="st2" d="M990,107.4h69c5,0,9,4,9,9v51c0,5-4,9-9,9h-69c-5,0-9-4-9-9v-51
			C981,111.5,985,107.4,990,107.4z"/>
		<text transform="matrix(1 0 0 1 1014 157.438)" class="st4 st5 st6">P</text>
		
			<linearGradient id="Rectangle_1664-3_1_" gradientUnits="userSpaceOnUse" x1="79.5805" y1="7.5284" x2="79.5805" y2="8.5284" gradientTransform="matrix(87 0 0 69 -5899 -158.061)">
			<stop  offset="0" style="stop-color:#00A6D3"/>
			<stop  offset="1" style="stop-color:#2271EC"/>
		</linearGradient>
		<path id="Rectangle_1664-3" class="st9" d="M990,361.4h69c5,0,9,4,9,9v51c0,5-4,9-9,9h-69c-5,0-9-4-9-9v-51
			C981,365.5,985,361.4,990,361.4z"/>
		<path id="Path_1371" class="st2" d="M55,297.7l16.1,10.9h-8.9v17.2H47.9v-17.2H39L55,297.7z"/>
		<path id="Path_1372" class="st2" d="M1024.5,371.4c-13.8,0-25,11.2-25,25s11.2,25,25,25c13.8,0,25-11.2,25-25
			S1038.3,371.4,1024.5,371.4z M1035.3,392.1c0.8-0.9,0.7-2.4-0.2-3.2c-0.9-0.8-2.4-0.7-3.2,0.2l-0.1,0.1l-9.8,11.7l-5.1-5.1
			c-0.9-0.9-2.3-0.9-3.2,0s-0.9,2.3,0,3.2l0,0l6.8,6.8c0.9,0.9,2.3,0.9,3.2,0c0,0,0.1-0.1,0.1-0.2L1035.3,392.1z"/>
		<path id="Rectangle_1978" class="st1" d="M884,279.4h175c5,0,9,4,9,9v51c0,5-4,9-9,9H884c-5,0-9-4-9-9v-51
			C875,283.5,879,279.4,884,279.4z"/>
		<path id="Rectangle_1977" class="st3" d="M884,276.4h175c5,0,9,4,9,9v52c0,5-4,9-9,9H884c-5,0-9-4-9-9v-52
			C875,280.5,879,276.4,884,276.4z"/>
		<g id="Group_4823" transform="translate(946.912 281.842)">
			<path id="Path_2717" class="st10" d="M36.6,36.8L21.4,22.4 M36.6,22.4L21.4,36.8"/>
			<path id="Path_2718" class="st10" d="M12.4,12.4c1-1.2,2.5-1.9,4-1.9h27.7c2.7-0.1,5,2.1,5,4.8v28.6c-0.1,2.7-2.3,4.8-5,4.8H16.4
				c-1.6,0-3.1-0.7-4-1.9L1,32.5c-1.3-1.7-1.3-4.1,0-5.7L12.4,12.4z"/>
		</g>
	</g>
</g>
</svg>
