<?xml version="1.0" encoding="utf-8"?>
<!-- Generator: Adobe Illustrator 22.0.1, SVG Export Plug-In . SVG Version: 6.00 Build 0)  -->
<svg version="1.1" id="Layer_1" xmlns="http://www.w3.org/2000/svg" xmlns:xlink="http://www.w3.org/1999/xlink" x="0px" y="0px"
	 viewBox="0 0 113.6 40.5" style="enable-background:new 0 0 113.6 40.5;" xml:space="preserve">
<style type="text/css">
	.st0{fill:#121212;}
</style>
<g id="Group_4610" transform="translate(-143 -1435.538)">
	<path id="Path_1381" class="st0" d="M253.8,1451.8v-4.9H252c-2.6-0.1-5.1,1.2-6.4,3.5v-3.3h-5.3v26.3h5.3v-15c0-4.1,2.5-6.7,6-6.7
		H253.8z M215.6,1457.9c0.8-3.9,4.2-6.7,8.2-6.7c4,0,7.4,2.8,8.2,6.7H215.6z M223.9,1446.7c-7.6-0.1-13.7,6-13.8,13.6
		c0,0,0,0.1,0,0.1c0,7.9,6.2,13.7,14.3,13.7c4.5,0.1,8.8-2,11.6-5.6l-3.8-2.8c-1.8,2.5-4.7,3.9-7.7,3.9c-4.4,0-8.2-3.1-8.9-7.5h21.9
		v-1.7C237.3,1452.5,231.7,1446.7,223.9,1446.7 M193.5,1469.6c-5,0-9.1-4.2-9.1-9.2s4.2-9.1,9.2-9.1c5,0,9.1,4.1,9.1,9.1
		C202.7,1465.5,198.6,1469.6,193.5,1469.6C193.6,1469.6,193.5,1469.6,193.5,1469.6 M179.1,1473.5h5.3v-3.3c2.5,2.5,6,3.9,9.6,3.9
		c7.6,0.2,13.9-5.8,14.1-13.4s-5.8-13.9-13.4-14.1c-0.2,0-0.5,0-0.7,0c-3.6,0-7,1.4-9.5,3.9v-13.2h-5.3L179.1,1473.5z M160.4,1469.3
		c5.1,0,9.1-3.9,9.1-9.6v-22.3h5.5v36.2h-5.5v-3.4c-2.6,2.6-6.1,4-9.7,4c-7.9,0-14-5.6-14-14.2v-22.6h5.5v22.3
		C151.3,1465.5,155.2,1469.3,160.4,1469.3"/>
</g>
</svg>
