<?xml version="1.0" encoding="utf-8"?>
<!-- Generator: Adobe Illustrator 22.0.1, SVG Export Plug-In . SVG Version: 6.00 Build 0)  -->
<svg version="1.1" id="Layer_1" xmlns="http://www.w3.org/2000/svg" xmlns:xlink="http://www.w3.org/1999/xlink" x="0px" y="0px"
	 viewBox="0 0 72 72" style="enable-background:new 0 0 72 72;" xml:space="preserve">
<style type="text/css">
	.st0{fill:#2271EC;}
	.st1{fill:#FFFFFF;}
</style>
<circle class="st0" cx="36" cy="36" r="36"/>
<g transform="translate(0,-288.53332)">
	<path class="st1" d="M36,304.2c-8.3,0-15,6.7-15,15c0,2.3,1,4.9,2.3,7.6c1.3,2.7,3.1,5.5,4.8,8.1c3.5,5.2,7,9.4,7,9.4
		c0.5,0.6,1.3,0.7,1.9,0.2c0.1-0.1,0.1-0.1,0.2-0.2c0,0,3.4-4.2,6.8-9.4c1.7-2.6,3.4-5.4,4.7-8.1c1.3-2.7,2.3-5.3,2.3-7.6
		C51,311,44.3,304.2,36,304.2z M36,307c6.8,0,12.3,5.5,12.3,12.3c0,1.5-0.8,3.8-2,6.4c-1.2,2.5-2.9,5.3-4.5,7.8
		c-2.8,4.3-4.8,6.7-5.6,7.7c-0.8-1-2.9-3.5-5.7-7.7c-1.7-2.5-3.4-5.3-4.6-7.8s-2-4.9-2-6.4C23.7,312.4,29.2,307,36,307z"/>
	<path class="st1" d="M36,312.4c-3.7,0-6.8,3.1-6.8,6.8c0,3.7,3.1,6.8,6.8,6.8s6.8-3.1,6.8-6.8C42.8,315.5,39.7,312.4,36,312.4z
		 M36,315.1c2.3,0,4.1,1.8,4.1,4.1c0,2.3-1.8,4.1-4.1,4.1s-4.1-1.8-4.1-4.1C31.9,317,33.7,315.1,36,315.1z"/>
</g>
</svg>
