<?xml version="1.0" encoding="utf-8"?>
<!-- Generator: Adobe Illustrator 22.0.1, SVG Export Plug-In . SVG Version: 6.00 Build 0)  -->
<svg version="1.1" id="Layer_1" xmlns="http://www.w3.org/2000/svg" xmlns:xlink="http://www.w3.org/1999/xlink" x="0px" y="0px"
	 viewBox="0 0 68 70.3" style="enable-background:new 0 0 68 70.3;" xml:space="preserve">
<path d="M64.9,68.4c0,0.3-0.1,0.5-0.3,0.7c-0.2,0.2-0.4,0.3-0.7,0.3H4.1c-0.3,0-0.5-0.1-0.7-0.3c-0.2-0.2-0.3-0.4-0.3-0.7
	C3.6,51.8,17.3,38.4,34,38.4C50.7,38.4,64.4,51.8,64.9,68.4L64.9,68.4z M34,1c9.7,0,17.6,7.9,17.6,17.6c0,9.7-7.9,17.6-17.6,17.6
	c-9.7,0-17.6-7.9-17.6-17.6C16.4,8.9,24.3,1,34,1z"/>
</svg>
