<?xml version="1.0" encoding="utf-8"?>
<!-- Generator: Adobe Illustrator 22.0.1, SVG Export Plug-In . SVG Version: 6.00 Build 0)  -->
<svg version="1.1" id="Layer_1" xmlns="http://www.w3.org/2000/svg" xmlns:xlink="http://www.w3.org/1999/xlink" x="0px" y="0px"
	 viewBox="0 0 29.2 22.4" style="enable-background:new 0 0 29.2 22.4;" xml:space="preserve">
<style type="text/css">
	.st0{fill:#A0A4A7;}
</style>
<g id="false">
	<path class="st0" d="M24,6l-3.5,3.5c0.9,3.3-1,6.7-4.3,7.6c-1.1,0.3-2.2,0.3-3.3,0L11,19.1c6.9,1.7,14.1-1.5,17.4-7.8
		C27.4,9.2,25.9,7.4,24,6z M14.6,5c0.6,0,1.2,0.1,1.7,0.3l1.9-1.9C11.3,1.7,4.1,4.9,0.7,11.2c1.1,2,2.6,3.8,4.4,5.2l3.5-3.5
		c-1-3.2,0.9-6.7,4.1-7.6C13.4,5.1,14,5,14.6,5z M14.5,7l-4.1,4.1c0-2.2,1.7-4.1,4-4.1C14.4,7,14.5,7,14.5,7z M18.8,11.3
		c0,2.3-1.9,4.1-4.1,4.1L18.8,11.3z M4.6,22.2c-0.6,0-1-0.5-1-1c0-0.3,0.1-0.5,0.3-0.7L23.9,0.5c0.4-0.4,1-0.4,1.4,0
		c0.4,0.4,0.4,1,0,1.4L5.3,22C5.1,22.1,4.8,22.2,4.6,22.2z"/>
</g>
</svg>
