<?xml version="1.0" encoding="utf-8"?>
<!-- Generator: Adobe Illustrator 22.0.1, SVG Export Plug-In . SVG Version: 6.00 Build 0)  -->
<svg version="1.1" id="Layer_1" xmlns="http://www.w3.org/2000/svg" xmlns:xlink="http://www.w3.org/1999/xlink" x="0px" y="0px"
	 viewBox="0 0 88 87" style="enable-background:new 0 0 88 87;" xml:space="preserve">
<path d="M44,3.5c-17.2,0-31.9,10.9-37.6,26.2c-0.2,0.3-0.3,0.7-0.4,1.1C4.7,34.8,4,39.1,4,43.5s0.7,8.7,2.1,12.7
	c0.1,0.4,0.2,0.8,0.4,1.1C12.1,72.6,26.8,83.5,44,83.5c22.1,0,40-17.9,40-40S66.1,3.5,44,3.5L44,3.5z M44,75.5c-0.6,0-3-1.7-5.4-7
	c-1.2-2.6-2.1-5.7-2.9-9h16.6c-0.7,3.3-1.7,6.4-2.9,9C47,73.8,44.6,75.5,44,75.5L44,75.5z M34.4,51.5c-0.3-2.6-0.4-5.3-0.4-8
	s0.1-5.4,0.4-8h19.2c0.3,2.6,0.4,5.3,0.4,8s-0.1,5.4-0.4,8H34.4z M12,43.5c0-2.8,0.4-5.4,1-8h13.3c-0.2,2.6-0.4,5.3-0.4,8
	s0.1,5.4,0.4,8H13C12.4,48.9,12,46.3,12,43.5z M44,11.5c0.6,0,3,1.7,5.4,7c1.2,2.6,2.1,5.7,2.9,9H35.7c0.7-3.3,1.7-6.4,2.9-9
	C41,13.2,43.4,11.5,44,11.5L44,11.5z M61.6,35.5H75c0.7,2.6,1,5.2,1,8s-0.4,5.4-1,8H61.6c0.2-2.6,0.4-5.3,0.4-8S61.9,38.1,61.6,35.5
	z M71.7,27.5H60.5c-1-5.2-2.5-9.8-4.4-13.6C62.7,16.6,68.2,21.4,71.7,27.5L71.7,27.5z M31.9,13.9c-1.9,3.8-3.4,8.4-4.4,13.6H16.3
	C19.8,21.4,25.3,16.6,31.9,13.9L31.9,13.9z M16.3,59.5h11.2c1,5.2,2.5,9.8,4.4,13.6C25.3,70.4,19.8,65.6,16.3,59.5L16.3,59.5z
	 M56.1,73.1c1.9-3.8,3.4-8.4,4.4-13.6h11.2C68.2,65.6,62.7,70.4,56.1,73.1L56.1,73.1z"/>
</svg>
