<?xml version="1.0" encoding="utf-8"?>
<!-- Generator: Adobe Illustrator 22.0.1, SVG Export Plug-In . SVG Version: 6.00 Build 0)  -->
<svg version="1.1" id="Layer_1" xmlns="http://www.w3.org/2000/svg" xmlns:xlink="http://www.w3.org/1999/xlink" x="0px" y="0px"
	 viewBox="0 0 98 57" style="enable-background:new 0 0 98 57;" xml:space="preserve">
<style type="text/css">
	.st0{fill:#A0A4A7;}
</style>
<g>
	<path class="st0" d="M57.7,19.8c-2.2-2.2-5.3-3.6-8.7-3.6c-3.4,0-6.4,1.4-8.7,3.6c-2.2,2.2-3.6,5.3-3.6,8.7c0,3.4,1.4,6.4,3.6,8.7
		c2.2,2.2,5.3,3.6,8.7,3.6c3.4,0,6.4-1.4,8.7-3.6c2.2-2.2,3.6-5.3,3.6-8.7C61.3,25.1,59.9,22.1,57.7,19.8z M83.8,14.2
		c4.5,3.5,8.8,7.8,12.7,12.8c0.7,0.8,0.7,2,0,2.9c-4,5-8.2,9.3-12.7,12.9C73,51.3,61,55.5,49,55.5c-12,0-24-4.2-34.8-12.7
		C9.7,39.2,5.4,35,1.5,30c-0.7-0.8-0.7-2,0-2.9c4-5,8.2-9.3,12.7-12.9C25,5.7,37,1.5,49,1.5C61,1.5,73,5.7,83.8,14.2z"/>
	<path class="st0" d="M49,18.8c2.7,0,5.1,1.1,6.8,2.8c1.7,1.7,2.8,4.2,2.8,6.8c0,2.7-1.1,5.1-2.8,6.8c-1.7,1.7-4.2,2.8-6.8,2.8
		c-2.7,0-5.1-1.1-6.8-2.8s-2.8-4.2-2.8-6.8c0-2.7,1.1-5.1,2.8-6.8C43.9,19.9,46.3,18.8,49,18.8z"/>
</g>
</svg>
