<?xml version="1.0" encoding="utf-8"?>
<!-- Generator: Adobe Illustrator 22.0.1, SVG Export Plug-In . SVG Version: 6.00 Build 0)  -->
<svg version="1.1" id="Layer_1" xmlns="http://www.w3.org/2000/svg" xmlns:xlink="http://www.w3.org/1999/xlink" x="0px" y="0px"
	 viewBox="0 0 90 76" style="enable-background:new 0 0 90 76;" xml:space="preserve">
<style type="text/css">
	.st0{fill:#585A5C;}
</style>
<title>A</title>
<g>
	<path class="st0" d="M53.4,0.3H36.6c-5.3,0-9.6,4.3-9.6,9.6v6.3h-4v59.6h44V16.2h-4V9.9C63,4.6,58.7,0.3,53.4,0.3z M57,16.2H33V9.9
		c0-2,1.6-3.6,3.6-3.6h16.7c2,0,3.6,1.6,3.6,3.6L57,16.2z"/>
	<path class="st0" d="M6.8,75.8h0.9h6.6H18V16.2H6.8c-3.7,0-6.8,3-6.8,6.8v45.9C0,72.7,3.1,75.8,6.8,75.8z"/>
	<path class="st0" d="M83.2,16.2H72v59.6h3.6h6.6h0.9c3.8,0,6.8-3.1,6.8-6.8l0,0V23C90,19.2,86.9,16.2,83.2,16.2z"/>
</g>
</svg>
