<svg id="Warning_Icon" data-name="Warning Icon" xmlns="http://www.w3.org/2000/svg" width="38.825" height="34.676" viewBox="0 0 38.825 34.676">
  <path id="Path_2819" data-name="Path 2819" d="M38.3,56.157,22.808,29.319a3.919,3.919,0,0,0-6.789,0L.524,56.156a3.919,3.919,0,0,0,3.394,5.879h30.99A3.919,3.919,0,0,0,38.3,56.157ZM19.414,57.621a2.427,2.427,0,1,1,2.426-2.427A2.428,2.428,0,0,1,19.414,57.621Zm1.5-7.767a1.5,1.5,0,0,1-2.99,0L16.986,38.88a2.427,2.427,0,1,1,4.854,0Z" transform="translate(-0.001 -27.359)" fill="#00a6d3"/>
</svg>
